<?xml version="1.0" encoding="UTF-8" standalone="no"?>
<!-- Generator: Adobe Illustrator 16.0.3, SVG Export Plug-In . SVG Version: 6.00 Build 0)  -->

<svg
   xmlns:dc="http://purl.org/dc/elements/1.1/"
   xmlns:cc="http://creativecommons.org/ns#"
   xmlns:rdf="http://www.w3.org/1999/02/22-rdf-syntax-ns#"
   xmlns:svg="http://www.w3.org/2000/svg"
   xmlns="http://www.w3.org/2000/svg"
   xmlns:sodipodi="http://sodipodi.sourceforge.net/DTD/sodipodi-0.dtd"
   xmlns:inkscape="http://www.inkscape.org/namespaces/inkscape"
   version="1.1"
   x="0px"
   y="0px"
   width="1920px"
   height="1080px"
   viewBox="0 0 1920 1080"
   enable-background="new 0 0 1920 1080"
   xml:space="preserve"
   id="svg2"
   inkscape:version="0.91 r13725"
   sodipodi:docname="logo 1920x1080.svg"><metadata
     id="metadata482"><rdf:RDF><cc:Work
         rdf:about=""><dc:format>image/svg+xml</dc:format><dc:type
           rdf:resource="http://purl.org/dc/dcmitype/StillImage" /></cc:Work></rdf:RDF></metadata><defs
     id="defs480" /><sodipodi:namedview
     pagecolor="#ffffff"
     bordercolor="#666666"
     borderopacity="1"
     objecttolerance="10"
     gridtolerance="10"
     guidetolerance="10"
     inkscape:pageopacity="0"
     inkscape:pageshadow="2"
     inkscape:window-width="1920"
     inkscape:window-height="1124"
     id="namedview478"
     showgrid="false"
     inkscape:zoom="0.55831973"
     inkscape:cx="465.50969"
     inkscape:cy="427.16094"
     inkscape:window-x="0"
     inkscape:window-y="24"
     inkscape:window-maximized="1"
     inkscape:current-layer="Layer_2" /><g
     id="Layer_2" /><g
     id="Layer_1"><g
       id="g8"><rect
         x="314.715"
         y="495.504"
         fill="#EC008C"
         width="39.435"
         height="39.435"
         id="rect10" /><rect
         x="433.017"
         y="456.072"
         fill="#EC008C"
         width="39.433"
         height="39.432"
         id="rect12" /><rect
         x="472.449"
         y="456.072"
         fill="#EC008C"
         width="39.435"
         height="39.432"
         id="rect14" /><rect
         x="393.582"
         y="495.504"
         fill="#EC008C"
         width="39.435"
         height="39.435"
         id="rect16" /><rect
         x="511.884"
         y="377.205"
         fill="#EC008C"
         width="39.433"
         height="39.432"
         id="rect18" /><rect
         x="393.582"
         y="416.637"
         fill="#EC008C"
         width="39.435"
         height="39.436"
         id="rect20" /><rect
         x="354.149"
         y="456.072"
         fill="#EC008C"
         width="39.433"
         height="39.432"
         id="rect22" /><rect
         x="314.715"
         y="377.205"
         fill="#EC008C"
         width="39.435"
         height="39.432"
         id="rect24" /><rect
         x="433.017"
         y="377.205"
         fill="#EC008C"
         width="39.433"
         height="39.432"
         id="rect26" /><rect
         x="472.449"
         y="337.771"
         fill="#EC008C"
         width="39.435"
         height="39.435"
         id="rect28" /><rect
         x="551.316"
         y="377.205"
         fill="#EC008C"
         width="39.435"
         height="39.432"
         id="rect30" /><rect
         x="590.751"
         y="377.205"
         fill="#EC008C"
         width="39.432"
         height="39.432"
         id="rect32" /><rect
         x="551.316"
         y="337.771"
         fill="#EC008C"
         width="39.435"
         height="39.435"
         id="rect34" /><rect
         x="472.449"
         y="377.205"
         fill="#EC008C"
         width="39.435"
         height="39.432"
         id="rect36" /><rect
         x="511.884"
         y="416.637"
         fill="#EC008C"
         width="39.433"
         height="39.436"
         id="rect38" /><rect
         x="551.316"
         y="456.072"
         fill="#EC008C"
         width="39.435"
         height="39.432"
         id="rect40" /><rect
         x="590.751"
         y="495.504"
         fill="#EC008C"
         width="39.432"
         height="39.435"
         id="rect42" /><rect
         x="511.884"
         y="495.504"
         fill="#EC008C"
         width="39.433"
         height="39.435"
         id="rect44" /><rect
         x="354.149"
         y="377.205"
         fill="#EC008C"
         width="39.433"
         height="39.432"
         id="rect46" /><rect
         x="433.017"
         y="298.338"
         fill="#EC008C"
         width="39.433"
         height="39.433"
         id="rect48" /><rect
         x="354.149"
         y="337.771"
         fill="#EC008C"
         width="39.433"
         height="39.435"
         id="rect50" /><rect
         x="393.582"
         y="377.205"
         fill="#EC008C"
         width="39.435"
         height="39.432"
         id="rect52" /><rect
         x="551.316"
         y="298.338"
         fill="#EC008C"
         width="39.435"
         height="39.433"
         id="rect54" /><rect
         x="354.149"
         y="298.338"
         fill="#EC008C"
         width="39.433"
         height="39.433"
         id="rect56" /><rect
         x="393.582"
         y="298.338"
         fill="#EC008C"
         width="39.435"
         height="39.433"
         id="rect58" /><rect
         x="393.582"
         y="258.903"
         fill="#EC008C"
         width="39.435"
         height="39.435"
         id="rect60" /><rect
         x="433.017"
         y="219.471"
         fill="#EC008C"
         width="39.433"
         height="39.433"
         id="rect62" /><rect
         x="472.449"
         y="219.471"
         fill="#EC008C"
         width="39.435"
         height="39.433"
         id="rect64" /><rect
         x="472.449"
         y="298.338"
         fill="#EC008C"
         width="39.435"
         height="39.433"
         id="rect66" /><rect
         x="511.884"
         y="298.338"
         fill="#EC008C"
         width="39.433"
         height="39.433"
         id="rect68" /><rect
         x="433.017"
         y="258.903"
         fill="#EC008C"
         width="39.433"
         height="39.435"
         id="rect70" /><rect
         x="472.449"
         y="258.903"
         fill="#EC008C"
         width="39.435"
         height="39.435"
         id="rect72" /><rect
         x="511.884"
         y="258.903"
         fill="#EC008C"
         width="39.433"
         height="39.435"
         id="rect74" /><rect
         x="433.017"
         y="337.771"
         fill="#EC008C"
         width="39.433"
         height="39.435"
         id="rect76" /><rect
         x="590.751"
         y="298.338"
         fill="#EC008C"
         width="39.432"
         height="39.433"
         id="rect78" /><rect
         x="314.715"
         y="298.338"
         fill="#EC008C"
         width="39.435"
         height="39.433"
         id="rect80" /></g><g
       id="g82"><rect
         x="44.267"
         y="229.115"
         fill="#FFFFFF"
         width="39.433"
         height="39.433"
         id="rect84" /><rect
         x="44.267"
         y="268.548"
         fill="#FFFFFF"
         width="39.433"
         height="39.435"
         id="rect86" /><rect
         x="44.267"
         y="307.982"
         fill="#FFFFFF"
         width="39.433"
         height="39.433"
         id="rect88" /><rect
         x="44.267"
         y="347.415"
         fill="#FFFFFF"
         width="39.433"
         height="39.435"
         id="rect90" /><rect
         x="44.267"
         y="386.85"
         fill="#FFFFFF"
         width="39.433"
         height="39.433"
         id="rect92" /><rect
         x="44.267"
         y="426.282"
         fill="#FFFFFF"
         width="39.433"
         height="39.432"
         id="rect94" /><rect
         x="44.267"
         y="465.714"
         fill="#FFFFFF"
         width="39.433"
         height="39.436"
         id="rect96" /><rect
         x="44.267"
         y="505.149"
         fill="#FFFFFF"
         width="39.433"
         height="39.432"
         id="rect98" /><rect
         x="241.434"
         y="229.115"
         fill="#FFFFFF"
         width="39.435"
         height="39.433"
         id="rect100" /><rect
         x="241.434"
         y="268.548"
         fill="#FFFFFF"
         width="39.435"
         height="39.435"
         id="rect102" /><rect
         x="241.434"
         y="347.415"
         fill="#FFFFFF"
         width="39.435"
         height="39.435"
         id="rect104" /><rect
         x="241.434"
         y="386.85"
         fill="#FFFFFF"
         width="39.435"
         height="39.433"
         id="rect106" /><rect
         x="241.434"
         y="426.282"
         fill="#FFFFFF"
         width="39.435"
         height="39.432"
         id="rect108" /><rect
         x="241.434"
         y="465.714"
         fill="#FFFFFF"
         width="39.435"
         height="39.436"
         id="rect110" /><rect
         x="241.434"
         y="505.149"
         fill="#FFFFFF"
         width="39.435"
         height="39.432"
         id="rect112" /><rect
         x="83.699"
         y="347.415"
         fill="#FFFFFF"
         width="39.435"
         height="39.435"
         id="rect114" /><rect
         x="123.134"
         y="347.415"
         fill="#FFFFFF"
         width="39.433"
         height="39.435"
         id="rect116" /><rect
         x="241.434"
         y="307.982"
         fill="#FFFFFF"
         width="39.435"
         height="39.433"
         id="rect118" /><rect
         x="162.566"
         y="347.415"
         fill="#FFFFFF"
         width="39.435"
         height="39.435"
         id="rect120" /><rect
         x="202.001"
         y="347.415"
         fill="#FFFFFF"
         width="39.433"
         height="39.435"
         id="rect122" /></g><g
       id="g124"><rect
         x="754.068"
         y="229.115"
         fill="#FFFFFF"
         width="39.435"
         height="39.433"
         id="rect126" /><rect
         x="675.201"
         y="307.982"
         fill="#FFFFFF"
         width="39.435"
         height="39.433"
         id="rect128" /><rect
         x="872.37"
         y="465.714"
         fill="#FFFFFF"
         width="39.433"
         height="39.436"
         id="rect130" /><rect
         x="832.936"
         y="505.149"
         fill="#FFFFFF"
         width="39.435"
         height="39.432"
         id="rect132" /><rect
         x="793.503"
         y="505.149"
         fill="#FFFFFF"
         width="39.433"
         height="39.432"
         id="rect134" /><rect
         x="754.068"
         y="505.149"
         fill="#FFFFFF"
         width="39.435"
         height="39.432"
         id="rect136" /><rect
         x="714.636"
         y="465.714"
         fill="#FFFFFF"
         width="39.433"
         height="39.436"
         id="rect138" /><rect
         x="675.201"
         y="426.282"
         fill="#FFFFFF"
         width="39.435"
         height="39.432"
         id="rect140" /><rect
         x="951.237"
         y="229.115"
         fill="#FFFFFF"
         width="39.433"
         height="39.433"
         id="rect142" /><rect
         x="951.237"
         y="268.548"
         fill="#FFFFFF"
         width="39.433"
         height="39.435"
         id="rect144" /><rect
         x="951.237"
         y="307.982"
         fill="#FFFFFF"
         width="39.433"
         height="39.433"
         id="rect146" /><rect
         x="951.237"
         y="347.415"
         fill="#FFFFFF"
         width="39.433"
         height="39.435"
         id="rect148" /><rect
         x="951.237"
         y="386.85"
         fill="#FFFFFF"
         width="39.433"
         height="39.433"
         id="rect150" /><rect
         x="951.237"
         y="426.282"
         fill="#FFFFFF"
         width="39.433"
         height="39.432"
         id="rect152" /><rect
         x="951.237"
         y="465.714"
         fill="#FFFFFF"
         width="39.433"
         height="39.436"
         id="rect154" /><rect
         x="951.237"
         y="505.149"
         fill="#FFFFFF"
         width="39.433"
         height="39.432"
         id="rect156" /><rect
         x="1227.271"
         y="505.149"
         fill="#FFFFFF"
         width="39.435"
         height="39.432"
         id="rect158" /><rect
         x="1779.341"
         y="505.149"
         fill="#FFFFFF"
         width="39.433"
         height="39.432"
         id="rect160" /><rect
         x="1739.906"
         y="229.115"
         fill="#FFFFFF"
         width="39.435"
         height="39.433"
         id="rect162" /><rect
         x="1779.341"
         y="229.115"
         fill="#FFFFFF"
         width="39.433"
         height="39.433"
         id="rect164" /><rect
         x="1818.773"
         y="465.714"
         fill="#FFFFFF"
         width="39.435"
         height="39.436"
         id="rect166" /><rect
         x="1818.773"
         y="426.282"
         fill="#FFFFFF"
         width="39.435"
         height="39.432"
         id="rect168" /><rect
         x="1661.039"
         y="229.115"
         fill="#FFFFFF"
         width="39.435"
         height="39.433"
         id="rect170" /><rect
         x="1661.039"
         y="268.548"
         fill="#FFFFFF"
         width="39.435"
         height="39.435"
         id="rect172" /><rect
         x="1661.039"
         y="307.982"
         fill="#FFFFFF"
         width="39.435"
         height="39.433"
         id="rect174" /><rect
         x="1661.039"
         y="347.415"
         fill="#FFFFFF"
         width="39.435"
         height="39.435"
         id="rect176" /><rect
         x="1661.039"
         y="386.85"
         fill="#FFFFFF"
         width="39.435"
         height="39.433"
         id="rect178" /><rect
         x="1661.039"
         y="426.282"
         fill="#FFFFFF"
         width="39.435"
         height="39.432"
         id="rect180" /><rect
         x="1661.039"
         y="465.714"
         fill="#FFFFFF"
         width="39.435"
         height="39.436"
         id="rect182" /><rect
         x="1661.039"
         y="505.149"
         fill="#FFFFFF"
         width="39.435"
         height="39.432"
         id="rect184" /><rect
         x="675.201"
         y="347.415"
         fill="#FFFFFF"
         width="39.435"
         height="39.435"
         id="rect186" /><rect
         x="675.201"
         y="386.85"
         fill="#FFFFFF"
         width="39.435"
         height="39.433"
         id="rect188" /><rect
         x="793.503"
         y="229.115"
         fill="#FFFFFF"
         width="39.433"
         height="39.433"
         id="rect190" /><rect
         x="832.936"
         y="229.115"
         fill="#FFFFFF"
         width="39.435"
         height="39.433"
         id="rect192" /><rect
         x="872.37"
         y="268.548"
         fill="#FFFFFF"
         width="39.433"
         height="39.435"
         id="rect194" /><rect
         x="714.636"
         y="268.548"
         fill="#FFFFFF"
         width="39.433"
         height="39.435"
         id="rect196" /><rect
         x="1108.972"
         y="229.115"
         fill="#FFFFFF"
         width="39.433"
         height="39.433"
         id="rect198" /><rect
         x="990.67"
         y="347.415"
         fill="#FFFFFF"
         width="39.435"
         height="39.435"
         id="rect200" /><rect
         x="1030.104"
         y="307.982"
         fill="#FFFFFF"
         width="39.433"
         height="39.433"
         id="rect202" /><rect
         x="990.67"
         y="386.85"
         fill="#FFFFFF"
         width="39.435"
         height="39.433"
         id="rect204" /><rect
         x="1069.537"
         y="268.548"
         fill="#FFFFFF"
         width="39.435"
         height="39.435"
         id="rect206" /><rect
         x="1030.104"
         y="426.282"
         fill="#FFFFFF"
         width="39.433"
         height="39.432"
         id="rect208" /><rect
         x="1069.537"
         y="465.714"
         fill="#FFFFFF"
         width="39.435"
         height="39.436"
         id="rect210" /><rect
         x="1108.972"
         y="505.149"
         fill="#FFFFFF"
         width="39.433"
         height="39.432"
         id="rect212" /><rect
         x="1266.706"
         y="505.149"
         fill="#FFFFFF"
         width="39.432"
         height="39.432"
         id="rect214" /><rect
         x="1306.138"
         y="505.149"
         fill="#FFFFFF"
         width="39.436"
         height="39.432"
         id="rect216" /><rect
         x="1345.573"
         y="505.149"
         fill="#FFFFFF"
         width="39.432"
         height="39.432"
         id="rect218" /><rect
         x="1700.474"
         y="505.149"
         fill="#FFFFFF"
         width="39.433"
         height="39.432"
         id="rect220" /><rect
         x="1187.839"
         y="229.115"
         fill="#FFFFFF"
         width="39.433"
         height="39.433"
         id="rect222" /><rect
         x="1187.839"
         y="268.548"
         fill="#FFFFFF"
         width="39.433"
         height="39.435"
         id="rect224" /><rect
         x="1187.839"
         y="307.982"
         fill="#FFFFFF"
         width="39.433"
         height="39.433"
         id="rect226" /><rect
         x="1187.839"
         y="347.415"
         fill="#FFFFFF"
         width="39.433"
         height="39.435"
         id="rect228" /><rect
         x="1187.839"
         y="386.85"
         fill="#FFFFFF"
         width="39.433"
         height="39.433"
         id="rect230" /><rect
         x="1187.839"
         y="426.282"
         fill="#FFFFFF"
         width="39.433"
         height="39.432"
         id="rect232" /><rect
         x="1187.839"
         y="465.714"
         fill="#FFFFFF"
         width="39.433"
         height="39.436"
         id="rect234" /><rect
         x="1187.839"
         y="505.149"
         fill="#FFFFFF"
         width="39.433"
         height="39.432"
         id="rect236" /><rect
         x="1700.474"
         y="229.115"
         fill="#FFFFFF"
         width="39.433"
         height="39.433"
         id="rect238" /><rect
         x="1779.341"
         y="347.415"
         fill="#FFFFFF"
         width="39.433"
         height="39.435"
         id="rect240" /><rect
         x="1818.773"
         y="268.548"
         fill="#FFFFFF"
         width="39.435"
         height="39.435"
         id="rect242" /><rect
         x="1818.773"
         y="386.85"
         fill="#FFFFFF"
         width="39.435"
         height="39.433"
         id="rect244" /><rect
         x="1818.773"
         y="307.982"
         fill="#FFFFFF"
         width="39.435"
         height="39.433"
         id="rect246" /><rect
         x="1739.906"
         y="347.415"
         fill="#FFFFFF"
         width="39.435"
         height="39.435"
         id="rect248" /><rect
         x="1700.474"
         y="347.415"
         fill="#FFFFFF"
         width="39.433"
         height="39.435"
         id="rect250" /><rect
         x="1739.906"
         y="505.149"
         fill="#FFFFFF"
         width="39.435"
         height="39.432"
         id="rect252" /><rect
         x="1424.439"
         y="465.714"
         fill="#FFFFFF"
         width="39.433"
         height="39.436"
         id="rect254" /><rect
         x="1424.439"
         y="386.85"
         fill="#FFFFFF"
         width="39.433"
         height="39.433"
         id="rect256" /><rect
         x="1424.439"
         y="426.282"
         fill="#FFFFFF"
         width="39.433"
         height="39.432"
         id="rect258" /><rect
         x="1424.439"
         y="505.149"
         fill="#FFFFFF"
         width="39.433"
         height="39.432"
         id="rect260" /><rect
         x="1463.872"
         y="386.85"
         fill="#FFFFFF"
         width="39.435"
         height="39.433"
         id="rect262" /><rect
         x="1424.439"
         y="307.982"
         fill="#FFFFFF"
         width="39.433"
         height="39.433"
         id="rect264" /><rect
         x="1424.439"
         y="347.415"
         fill="#FFFFFF"
         width="39.433"
         height="39.435"
         id="rect266" /><rect
         x="1463.872"
         y="268.548"
         fill="#FFFFFF"
         width="39.435"
         height="39.435"
         id="rect268" /><rect
         x="1503.307"
         y="229.115"
         fill="#FFFFFF"
         width="39.433"
         height="39.433"
         id="rect270" /><rect
         x="1542.739"
         y="268.548"
         fill="#FFFFFF"
         width="39.435"
         height="39.435"
         id="rect272" /><rect
         x="1503.307"
         y="386.85"
         fill="#FFFFFF"
         width="39.433"
         height="39.433"
         id="rect274" /><rect
         x="1542.739"
         y="386.85"
         fill="#FFFFFF"
         width="39.435"
         height="39.433"
         id="rect276" /><rect
         x="1582.174"
         y="307.982"
         fill="#FFFFFF"
         width="39.433"
         height="39.433"
         id="rect278" /><rect
         x="1582.174"
         y="347.415"
         fill="#FFFFFF"
         width="39.433"
         height="39.435"
         id="rect280" /><rect
         x="1582.174"
         y="386.85"
         fill="#FFFFFF"
         width="39.433"
         height="39.433"
         id="rect282" /><rect
         x="1582.174"
         y="426.282"
         fill="#FFFFFF"
         width="39.433"
         height="39.432"
         id="rect284" /><rect
         x="1582.174"
         y="465.714"
         fill="#FFFFFF"
         width="39.433"
         height="39.436"
         id="rect286" /><rect
         x="1582.174"
         y="505.149"
         fill="#FFFFFF"
         width="39.433"
         height="39.432"
         id="rect288" /></g><g
       id="g290"><g
         id="g292"><rect
           x="44.267"
           y="662.883"
           fill="#FFFFFF"
           width="39.433"
           height="39.433"
           id="rect294" /><rect
           x="44.267"
           y="623.448"
           fill="#FFFFFF"
           width="39.433"
           height="39.435"
           id="rect296" /><rect
           x="44.267"
           y="702.315"
           fill="#FFFFFF"
           width="39.433"
           height="39.435"
           id="rect298" /><rect
           x="44.267"
           y="741.75"
           fill="#FFFFFF"
           width="39.433"
           height="39.433"
           id="rect300" /><rect
           x="44.267"
           y="781.183"
           fill="#FFFFFF"
           width="39.433"
           height="39.435"
           id="rect302" /><rect
           x="44.267"
           y="820.617"
           fill="#FFFFFF"
           width="39.433"
           height="39.433"
           id="rect304" /><rect
           x="44.267"
           y="584.016"
           fill="#FFFFFF"
           width="39.433"
           height="39.433"
           id="rect306" /><rect
           x="83.699"
           y="623.448"
           fill="#FFFFFF"
           width="39.435"
           height="39.435"
           id="rect308" /><rect
           x="123.134"
           y="662.883"
           fill="#FFFFFF"
           width="39.433"
           height="39.433"
           id="rect310" /><rect
           x="202.001"
           y="662.883"
           fill="#FFFFFF"
           width="39.433"
           height="39.433"
           id="rect312" /><rect
           x="162.566"
           y="702.315"
           fill="#FFFFFF"
           width="39.435"
           height="39.435"
           id="rect314" /><rect
           x="280.868"
           y="623.448"
           fill="#FFFFFF"
           width="39.433"
           height="39.435"
           id="rect316" /><rect
           x="241.434"
           y="623.448"
           fill="#FFFFFF"
           width="39.435"
           height="39.435"
           id="rect318" /><rect
           x="280.868"
           y="584.016"
           fill="#FFFFFF"
           width="39.433"
           height="39.433"
           id="rect320" /><rect
           x="280.868"
           y="662.883"
           fill="#FFFFFF"
           width="39.433"
           height="39.433"
           id="rect322" /><rect
           x="280.868"
           y="702.315"
           fill="#FFFFFF"
           width="39.433"
           height="39.435"
           id="rect324" /><rect
           x="280.868"
           y="741.75"
           fill="#FFFFFF"
           width="39.433"
           height="39.433"
           id="rect326" /><rect
           x="280.868"
           y="781.183"
           fill="#FFFFFF"
           width="39.433"
           height="39.435"
           id="rect328" /><rect
           x="280.868"
           y="820.617"
           fill="#FFFFFF"
           width="39.433"
           height="39.433"
           id="rect330" /></g><g
         id="g332"><rect
           x="445.175"
           y="623.448"
           fill="#FFFFFF"
           width="39.433"
           height="39.435"
           id="rect334" /><rect
           x="445.175"
           y="662.883"
           fill="#FFFFFF"
           width="39.433"
           height="39.433"
           id="rect336" /><rect
           x="445.175"
           y="584.016"
           fill="#FFFFFF"
           width="39.433"
           height="39.433"
           id="rect338" /><rect
           x="445.175"
           y="702.315"
           fill="#FFFFFF"
           width="39.433"
           height="39.435"
           id="rect340" /><rect
           x="445.175"
           y="741.75"
           fill="#FFFFFF"
           width="39.433"
           height="39.433"
           id="rect342" /><rect
           x="445.175"
           y="781.183"
           fill="#FFFFFF"
           width="39.433"
           height="39.435"
           id="rect344" /><rect
           x="445.175"
           y="820.617"
           fill="#FFFFFF"
           width="39.433"
           height="39.433"
           id="rect346" /></g><g
         id="g348"><rect
           x="609.48"
           y="584.016"
           fill="#FFFFFF"
           width="39.433"
           height="39.433"
           id="rect350" /><rect
           x="609.48"
           y="623.448"
           fill="#FFFFFF"
           width="39.433"
           height="39.435"
           id="rect352" /><rect
           x="609.48"
           y="662.883"
           fill="#FFFFFF"
           width="39.433"
           height="39.433"
           id="rect354" /><rect
           x="609.48"
           y="702.315"
           fill="#FFFFFF"
           width="39.433"
           height="39.435"
           id="rect356" /><rect
           x="609.48"
           y="741.75"
           fill="#FFFFFF"
           width="39.433"
           height="39.433"
           id="rect358" /><rect
           x="609.48"
           y="781.183"
           fill="#FFFFFF"
           width="39.433"
           height="39.435"
           id="rect360" /><rect
           x="609.48"
           y="820.617"
           fill="#FFFFFF"
           width="39.433"
           height="39.433"
           id="rect362" /><rect
           x="767.215"
           y="584.016"
           fill="#FFFFFF"
           width="39.433"
           height="39.433"
           id="rect364" /><rect
           x="648.913"
           y="702.315"
           fill="#FFFFFF"
           width="39.435"
           height="39.435"
           id="rect366" /><rect
           x="688.348"
           y="662.883"
           fill="#FFFFFF"
           width="39.433"
           height="39.433"
           id="rect368" /><rect
           x="688.348"
           y="741.75"
           fill="#FFFFFF"
           width="39.433"
           height="39.433"
           id="rect370" /><rect
           x="727.78"
           y="623.448"
           fill="#FFFFFF"
           width="39.435"
           height="39.435"
           id="rect372" /><rect
           x="727.78"
           y="781.183"
           fill="#FFFFFF"
           width="39.435"
           height="39.435"
           id="rect374" /><rect
           x="767.215"
           y="820.617"
           fill="#FFFFFF"
           width="39.433"
           height="39.433"
           id="rect376" /></g><g
         id="g378"><rect
           x="931.521"
           y="584.016"
           fill="#FFFFFF"
           width="39.432"
           height="39.433"
           id="rect380" /><rect
           x="931.521"
           y="623.448"
           fill="#FFFFFF"
           width="39.432"
           height="39.435"
           id="rect382" /><rect
           x="931.521"
           y="662.883"
           fill="#FFFFFF"
           width="39.432"
           height="39.433"
           id="rect384" /><rect
           x="931.521"
           y="702.315"
           fill="#FFFFFF"
           width="39.432"
           height="39.435"
           id="rect386" /><rect
           x="931.521"
           y="741.75"
           fill="#FFFFFF"
           width="39.432"
           height="39.433"
           id="rect388" /><rect
           x="931.521"
           y="781.183"
           fill="#FFFFFF"
           width="39.432"
           height="39.435"
           id="rect390" /><rect
           x="931.521"
           y="820.617"
           fill="#FFFFFF"
           width="39.432"
           height="39.433"
           id="rect392" /><rect
           x="1089.255"
           y="584.016"
           fill="#FFFFFF"
           width="39.433"
           height="39.433"
           id="rect394" /><rect
           x="970.953"
           y="702.315"
           fill="#FFFFFF"
           width="39.436"
           height="39.435"
           id="rect396" /><rect
           x="1010.389"
           y="662.883"
           fill="#FFFFFF"
           width="39.432"
           height="39.433"
           id="rect398" /><rect
           x="1010.389"
           y="741.75"
           fill="#FFFFFF"
           width="39.432"
           height="39.433"
           id="rect400" /><rect
           x="1049.82"
           y="623.448"
           fill="#FFFFFF"
           width="39.435"
           height="39.435"
           id="rect402" /><rect
           x="1049.82"
           y="781.183"
           fill="#FFFFFF"
           width="39.435"
           height="39.435"
           id="rect404" /><rect
           x="1089.255"
           y="820.617"
           fill="#FFFFFF"
           width="39.433"
           height="39.433"
           id="rect406" /></g><g
         id="g408"><rect
           x="1818.773"
           y="623.448"
           fill="#FFFFFF"
           width="39.435"
           height="39.435"
           id="rect410" /><rect
           x="1818.773"
           y="662.883"
           fill="#FFFFFF"
           width="39.435"
           height="39.433"
           id="rect412" /><rect
           x="1818.773"
           y="584.016"
           fill="#FFFFFF"
           width="39.435"
           height="39.433"
           id="rect414" /><rect
           x="1818.773"
           y="702.315"
           fill="#FFFFFF"
           width="39.435"
           height="39.435"
           id="rect416" /><rect
           x="1818.773"
           y="741.75"
           fill="#FFFFFF"
           width="39.435"
           height="39.433"
           id="rect418" /><rect
           x="1818.773"
           y="781.183"
           fill="#FFFFFF"
           width="39.435"
           height="39.435"
           id="rect420" /><rect
           x="1818.773"
           y="820.617"
           fill="#FFFFFF"
           width="39.435"
           height="39.433"
           id="rect422" /></g><g
         id="g424"><rect
           x="1575.6"
           y="820.617"
           fill="#FFFFFF"
           width="39.435"
           height="39.433"
           id="rect426" /><rect
           x="1615.034"
           y="820.617"
           fill="#FFFFFF"
           width="39.433"
           height="39.433"
           id="rect428" /><rect
           x="1654.467"
           y="820.617"
           fill="#FFFFFF"
           width="39.435"
           height="39.433"
           id="rect430" /><rect
           x="1536.167"
           y="584.016"
           fill="#FFFFFF"
           width="39.433"
           height="39.433"
           id="rect432" /><rect
           x="1536.167"
           y="623.448"
           fill="#FFFFFF"
           width="39.433"
           height="39.435"
           id="rect434" /><rect
           x="1536.167"
           y="662.883"
           fill="#FFFFFF"
           width="39.433"
           height="39.433"
           id="rect436" /><rect
           x="1536.167"
           y="702.315"
           fill="#FFFFFF"
           width="39.433"
           height="39.435"
           id="rect438" /><rect
           x="1536.167"
           y="741.75"
           fill="#FFFFFF"
           width="39.433"
           height="39.433"
           id="rect440" /><rect
           x="1536.167"
           y="781.183"
           fill="#FFFFFF"
           width="39.433"
           height="39.435"
           id="rect442" /><rect
           x="1536.167"
           y="820.617"
           fill="#FFFFFF"
           width="39.433"
           height="39.433"
           id="rect444" /></g><g
         id="g446"><rect
           x="1371.861"
           y="584.016"
           fill="#FFFFFF"
           width="39.433"
           height="39.433"
           id="rect448" /><rect
           x="1292.994"
           y="702.315"
           fill="#FFFFFF"
           width="39.433"
           height="39.435"
           id="rect450" /><rect
           x="1292.994"
           y="820.617"
           fill="#FFFFFF"
           width="39.433"
           height="39.433"
           id="rect452" /><rect
           x="1332.427"
           y="820.617"
           fill="#FFFFFF"
           width="39.435"
           height="39.433"
           id="rect454" /><rect
           x="1371.861"
           y="820.617"
           fill="#FFFFFF"
           width="39.433"
           height="39.433"
           id="rect456" /><rect
           x="1332.427"
           y="584.016"
           fill="#FFFFFF"
           width="39.435"
           height="39.433"
           id="rect458" /><rect
           x="1292.994"
           y="584.016"
           fill="#FFFFFF"
           width="39.433"
           height="39.433"
           id="rect460" /><rect
           x="1253.562"
           y="584.016"
           fill="#FFFFFF"
           width="39.433"
           height="39.433"
           id="rect462" /><rect
           x="1253.562"
           y="623.448"
           fill="#FFFFFF"
           width="39.433"
           height="39.435"
           id="rect464" /><rect
           x="1253.562"
           y="662.883"
           fill="#FFFFFF"
           width="39.433"
           height="39.433"
           id="rect466" /><rect
           x="1253.562"
           y="702.315"
           fill="#FFFFFF"
           width="39.433"
           height="39.435"
           id="rect468" /><rect
           x="1253.562"
           y="741.75"
           fill="#FFFFFF"
           width="39.433"
           height="39.433"
           id="rect470" /><rect
           x="1253.562"
           y="781.183"
           fill="#FFFFFF"
           width="39.433"
           height="39.435"
           id="rect472" /><rect
           x="1253.562"
           y="820.617"
           fill="#FFFFFF"
           width="39.433"
           height="39.433"
           id="rect474" /><rect
           x="1332.427"
           y="702.315"
           fill="#FFFFFF"
           width="39.435"
           height="39.435"
           id="rect476" /></g></g></g></svg>